<?xml version="1.0" standalone="no"?>
<!DOCTYPE svg PUBLIC "-//W3C//DTD SVG 20010904//EN"
 "http://www.w3.org/TR/2001/REC-SVG-20010904/DTD/svg10.dtd">
<svg version="1.0" xmlns="http://www.w3.org/2000/svg"
 width="512.000000pt" height="512.000000pt" viewBox="0 0 512.000000 512.000000"
 preserveAspectRatio="xMidYMid meet">

<g transform="translate(0.000000,512.000000) scale(0.100000,-0.100000)"
fill="#000000" stroke="none">
<path d="M895 3975 c-48 -47 -42 -61 191 -464 204 -354 216 -376 198 -388 -10
-8 -62 -40 -114 -72 -616 -380 -1042 -1038 -1151 -1775 -10 -72 -19 -137 -19
-143 0 -10 519 -13 2560 -13 1639 0 2560 3 2560 10 0 34 -35 253 -55 340 -149
667 -576 1263 -1148 1602 -49 29 -90 56 -93 60 -3 4 92 175 211 380 232 402
238 416 190 463 -29 30 -83 33 -114 8 -11 -10 -118 -187 -237 -393 -119 -206
-217 -376 -217 -376 -1 -1 -51 18 -112 43 -313 126 -623 184 -985 184 -362 0
-699 -64 -1000 -189 -52 -22 -96 -39 -97 -39 0 1 -98 171 -217 377 -119 206
-226 383 -237 393 -31 25 -85 22 -114 -8z m586 -1728 c68 -36 103 -93 107
-175 3 -56 0 -74 -20 -112 -64 -119 -223 -147 -325 -57 -115 101 -88 279 52
351 46 24 133 21 186 -7z m2347 4 c138 -71 163 -248 49 -348 -102 -90 -261
-62 -325 57 -20 38 -23 56 -20 112 3 55 9 75 33 109 58 83 177 114 263 70z"/>
</g>
</svg>
