<?xml version="1.0" standalone="no"?>
<!DOCTYPE svg PUBLIC "-//W3C//DTD SVG 20010904//EN"
 "http://www.w3.org/TR/2001/REC-SVG-20010904/DTD/svg10.dtd">
<svg version="1.0" xmlns="http://www.w3.org/2000/svg"
 width="512.000000pt" height="512.000000pt" viewBox="0 0 512.000000 512.000000"
 preserveAspectRatio="xMidYMid meet">

<g transform="translate(0.000000,512.000000) scale(0.100000,-0.100000)"
fill="#000000" stroke="none">
<path d="M2320 5024 c-327 -39 -571 -110 -845 -243 -436 -214 -784 -531 -1037
-947 -169 -278 -277 -580 -330 -919 -30 -199 -30 -521 0 -720 86 -555 335
-1036 738 -1425 369 -356 831 -583 1356 -667 161 -25 556 -25 718 1 521 82
980 307 1348 661 588 564 860 1354 742 2154 -82 561 -351 1067 -775 1461 -285
266 -674 477 -1054 575 -210 54 -320 67 -581 70 -135 2 -261 1 -280 -1z m816
-767 c-6 -86 -50 -231 -93 -305 -73 -128 -186 -243 -288 -293 -60 -29 -174
-58 -229 -59 l-29 0 6 83 c22 275 167 504 387 610 52 25 127 55 165 65 l70 19
8 -21 c5 -11 6 -56 3 -99z m207 -626 c141 -37 244 -99 360 -220 l69 -71 -85
-83 c-198 -193 -266 -351 -255 -596 9 -188 79 -343 218 -483 56 -56 96 -86
144 -109 36 -17 66 -36 66 -42 0 -7 -20 -59 -43 -117 -126 -307 -351 -606
-522 -690 -66 -33 -75 -35 -170 -34 -90 0 -113 4 -225 42 -290 96 -374 96
-623 2 -149 -56 -232 -68 -317 -46 -92 24 -162 68 -257 163 -198 198 -412 614
-483 939 -58 272 -49 566 25 785 102 298 315 505 569 554 139 27 236 16 511
-55 83 -21 169 -41 191 -45 55 -8 138 8 289 56 173 55 234 67 356 68 75 1 128
-5 182 -18z"/>
</g>
</svg>
